<svg xmlns="http://www.w3.org/2000/svg" viewBox="0 0 512 480" width="512" height="480">
  <!-- Blue chat bubble (left) -->
  <path d="M256 50 C150 50 60 120 60 210 C60 270 95 320 145 350 L110 420 L180 360 C200 365 225 370 256 370 C320 370 270 290 270 210 C270 120 330 50 256 50 Z" 
        fill="#4A9EF5"/>
  
  <!-- Blue face silhouette (looking right) -->
  <path d="M170 130 C165 130 162 135 162 140 C162 145 161 150 160 155 C159 160 158 165 159 170 C160 175 162 180 164 185 C162 190 160 195 160 200 C160 205 162 210 166 215 C170 220 176 225 184 230 C192 235 202 238 212 238 C222 238 230 235 237 230 C244 225 249 218 252 210 C255 202 256 194 255 186 C254 178 252 171 249 164 C246 157 243 151 239 146 C235 141 231 137 226 134 C221 131 215 130 210 132 C205 134 202 137 200 142 C198 147 198 152 198 157 L198 162 C198 167 200 172 203 177 C206 182 210 186 215 189 C208 192 201 194 195 194 C189 194 184 192 180 188 C176 184 173 179 171 173 C172 168 173 163 174 158 C175 153 175 148 174 143 C173 138 171 134 170 130 Z" 
        fill="#1a1f3a" opacity="0.8"/>
  
  <!-- Coral/pink chat bubble (right) -->
  <path d="M256 60 C362 60 452 125 452 215 C452 275 420 325 370 355 L405 420 L335 365 C315 370 290 375 256 375 C192 375 242 295 242 215 C242 125 182 60 256 60 Z" 
        fill="#FF7B7B"/>
  
  <!-- Pink face silhouette (looking left) -->
  <path d="M342 135 C347 135 350 140 350 145 C350 150 351 155 352 160 C353 165 354 170 353 175 C352 180 350 185 348 190 C350 195 352 200 352 205 C352 210 350 215 346 220 C342 225 336 230 328 235 C320 240 310 243 300 243 C290 243 282 240 275 235 C268 230 263 223 260 215 C257 207 256 199 257 191 C258 183 260 176 263 169 C266 162 269 156 273 151 C277 146 281 142 286 139 C291 136 297 135 302 137 C307 139 310 142 312 147 C314 152 314 157 314 162 L314 167 C314 172 312 177 309 182 C306 187 302 191 297 194 C304 197 311 199 317 199 C323 199 328 197 332 193 C336 189 339 184 341 178 C340 173 339 168 338 163 C337 158 337 153 338 148 C339 143 341 139 342 135 Z" 
        fill="#1a1f3a" opacity="0.8"/>
</svg>
